<svg xmlns="http://www.w3.org/2000/svg" width="24.578" height="20" viewBox="0 0 24.578 20">
  <path id="_x30_4.Twitter" d="M34.478,19.866a10.336,10.336,0,0,1-2.888.8,4.915,4.915,0,0,0,2.212-2.8,10.611,10.611,0,0,1-3.2,1.229,5.043,5.043,0,0,0-8.725,3.441A4.607,4.607,0,0,0,22,23.675a14.183,14.183,0,0,1-10.353-5.253,5.056,5.056,0,0,0,1.536,6.728,4.838,4.838,0,0,1-2.273-.614,5.092,5.092,0,0,0,4.025,5.008,5.53,5.53,0,0,1-2.273.092,5.059,5.059,0,0,0,4.7,3.5A10.151,10.151,0,0,1,9.9,35.227,14.317,14.317,0,0,0,31.958,23.184a4.537,4.537,0,0,0-.031-.645,10,10,0,0,0,2.55-2.673Z" transform="translate(-9.9 -17.5)" fill="#000"/>
</svg>
