<svg xmlns="http://www.w3.org/2000/svg" width="28.233" height="20" viewBox="0 0 28.233 20">
  <g id="youtube" transform="translate(0 -59.72)">
    <g id="Group_184" data-name="Group 184" transform="translate(0 59.72)">
      <path id="Path_373" data-name="Path 373" d="M27.839,62.993a3.153,3.153,0,0,0-2.532-2.581,90.733,90.733,0,0,0-22.38,0A3.153,3.153,0,0,0,.394,62.993a57.683,57.683,0,0,0,0,13.454,3.152,3.152,0,0,0,2.533,2.581,90.733,90.733,0,0,0,22.38,0,3.152,3.152,0,0,0,2.532-2.581A57.676,57.676,0,0,0,27.839,62.993ZM11.764,74.426V65.015l7.058,4.706Z" transform="translate(0 -59.72)" fill="#000"/>
    </g>
  </g>
</svg>
